<svg width="50" height="33" viewBox="0 0 50 33" fill="none" xmlns="http://www.w3.org/2000/svg">
<path d="M23.288 7.5C23.288 9.372 23.12 11.352 22.784 13.44C22.472 15.504 21.956 17.532 21.236 19.524C20.54 21.492 19.616 23.28 18.464 24.888C17.312 26.496 15.92 27.78 14.288 28.74C12.68 29.7 10.796 30.18 8.636 30.18C6.164 30.18 4.172 29.388 2.66 27.804C1.148 26.22 0.392 23.796 0.392 20.532C0.392 18.924 0.572 17.352 0.932 15.816C1.316 14.256 1.724 12.852 2.156 11.604C2.108 11.388 2.084 11.136 2.084 10.848C2.084 9.816 2.24 8.844 2.552 7.932C2.888 6.996 3.308 6.18 3.812 5.484C4.34 4.764 4.892 4.2 5.468 3.792C6.068 3.384 6.632 3.18 7.16 3.18C7.712 3.18 8.192 3.372 8.6 3.756C9.032 4.116 9.248 4.752 9.248 5.664C9.248 6.216 9.044 6.984 8.636 7.968C8.252 8.928 7.808 10.08 7.304 11.424C6.8 12.744 6.344 14.232 5.936 15.888C5.552 17.52 5.36 19.272 5.36 21.144C5.36 23.736 6.656 25.032 9.248 25.032C10.592 25.032 11.744 24.648 12.704 23.88C13.688 23.088 14.492 22.032 15.116 20.712C15.764 19.392 16.292 17.904 16.7 16.248C17.108 14.592 17.42 12.888 17.636 11.136C17.852 9.36 18.008 7.656 18.104 6.024C18.176 5.112 18.452 4.452 18.932 4.044C19.436 3.636 20.036 3.432 20.732 3.432C21.188 3.432 21.608 3.516 21.992 3.684C22.376 3.828 22.688 4.188 22.928 4.764C23.168 5.34 23.288 6.252 23.288 7.5ZM42.1059 30.72C41.0259 30.72 40.2099 30.36 39.6579 29.64C39.1059 28.92 38.5539 28.044 38.0019 27.012C37.4739 25.98 36.9699 24.96 36.4899 23.952C36.0099 22.92 35.5299 21.876 35.0499 20.82C33.7779 22.332 32.5779 23.772 31.4499 25.14C30.3459 26.484 29.3739 27.672 28.5339 28.704C27.7179 29.712 27.1059 30.492 26.6979 31.044C26.3379 31.5 25.9779 31.884 25.6179 32.196C25.2819 32.532 24.7899 32.7 24.1419 32.7C23.5179 32.7 23.0259 32.508 22.6659 32.124C22.3299 31.764 22.1619 31.26 22.1619 30.612C22.1619 30.108 22.4619 29.376 23.0619 28.416C23.6619 27.432 24.4659 26.28 25.4739 24.96C26.5059 23.616 27.6579 22.188 28.9299 20.676C30.2259 19.14 31.5699 17.568 32.9619 15.96C31.5699 12.528 30.4779 9.636 29.6859 7.284C28.9179 4.908 28.5339 3.216 28.5339 2.208C28.5339 0.887999 29.1819 0.227999 30.4779 0.227999C31.1739 0.227999 31.7139 0.419999 32.0979 0.803998C32.5059 1.164 32.8419 1.668 33.1059 2.316C33.3459 2.868 33.7179 3.876 34.2219 5.34C34.7259 6.78 35.5179 8.94 36.5979 11.82C38.2779 9.9 39.6579 8.268 40.7379 6.924C41.8419 5.58 42.7539 4.5 43.4739 3.684C44.1939 2.868 44.8179 2.268 45.3459 1.884C45.8739 1.5 46.3899 1.308 46.8939 1.308C47.5659 1.308 48.0819 1.488 48.4419 1.848C48.8259 2.184 49.0179 2.676 49.0179 3.324C49.0179 3.924 48.9099 4.44 48.6939 4.872C48.4779 5.304 48.1899 5.76 47.8299 6.24C47.2779 7.056 46.4979 8.016 45.4899 9.12C44.5059 10.2 43.4019 11.388 42.1779 12.684C40.9779 13.98 39.7659 15.336 38.5419 16.752C39.4539 18.96 40.3299 20.868 41.1699 22.476C42.0099 24.084 42.6939 25.404 43.2219 26.436C43.7499 27.468 44.0139 28.236 44.0139 28.74C44.0139 29.34 43.8459 29.82 43.5099 30.18C43.1739 30.54 42.7059 30.72 42.1059 30.72Z" fill="#959595"/>
</svg>
