<svg width="30" height="28" viewBox="0 0 30 28" fill="none" xmlns="http://www.w3.org/2000/svg">
<g filter="url(#filter0_d_535_806)">
<path d="M10.5 11C11.0304 11 11.5391 10.7893 11.9142 10.4142C12.2893 10.0391 12.5 9.53043 12.5 9C12.5 8.46957 12.2893 7.96086 11.9142 7.58579C11.5391 7.21071 11.0304 7 10.5 7H6V11H10.5ZM11.5 13H6V17H11.5C12.0304 17 12.5391 16.7893 12.9142 16.4142C13.2893 16.0391 13.5 15.5304 13.5 15C13.5 14.4696 13.2893 13.9609 12.9142 13.5858C12.5391 13.2107 12.0304 13 11.5 13ZM13.563 11.572C14.3125 12.0227 14.8937 12.7066 15.2175 13.5191C15.5413 14.3315 15.5899 15.2277 15.3559 16.0704C15.1218 16.9131 14.618 17.6559 13.9216 18.185C13.2252 18.7141 12.3746 19.0004 11.5 19H4V5H10.5C11.2617 4.99993 12.0075 5.21732 12.6498 5.62661C13.2922 6.0359 13.8043 6.62007 14.126 7.31045C14.4478 8.00083 14.5657 8.76871 14.4659 9.52381C14.3662 10.2789 14.0529 10.9898 13.563 11.573M18.5 6H24V7.5H18.5V6ZM26 14.5H18.5V14.75C18.4998 15.3677 18.7075 15.9676 19.0898 16.4528C19.4721 16.938 20.0066 17.2804 20.6073 17.4248C21.2079 17.5692 21.8396 17.5072 22.4007 17.2487C22.9617 16.9902 23.4194 16.5503 23.7 16H25.834C25.5293 17.1083 24.8333 18.0686 23.8748 18.703C22.9164 19.3374 21.7605 19.6029 20.6212 19.4503C19.482 19.2978 18.4367 18.7375 17.6789 17.8732C16.9212 17.009 16.5023 15.8994 16.5 14.75V13.25C16.5 11.9902 17.0004 10.782 17.8912 9.89124C18.782 9.00045 19.9902 8.5 21.25 8.5C22.5098 8.5 23.718 9.00045 24.6088 9.89124C25.4996 10.782 26 11.9902 26 13.25V14.5ZM23.896 12.5C23.7323 11.9245 23.3854 11.4181 22.9079 11.0575C22.4304 10.6969 21.8483 10.5018 21.25 10.5018C20.6517 10.5018 20.0696 10.6969 19.5921 11.0575C19.1146 11.4181 18.7677 11.9245 18.604 12.5H23.896Z" fill="#BABABA"/>
</g>
<defs>
<filter id="filter0_d_535_806" x="-1" y="0" width="32" height="32" filterUnits="userSpaceOnUse" color-interpolation-filters="sRGB">
<feFlood flood-opacity="0" result="BackgroundImageFix"/>
<feColorMatrix in="SourceAlpha" type="matrix" values="0 0 0 0 0 0 0 0 0 0 0 0 0 0 0 0 0 0 127 0" result="hardAlpha"/>
<feOffset dy="4"/>
<feGaussianBlur stdDeviation="2"/>
<feComposite in2="hardAlpha" operator="out"/>
<feColorMatrix type="matrix" values="0 0 0 0 0 0 0 0 0 0 0 0 0 0 0 0 0 0 0.25 0"/>
<feBlend mode="normal" in2="BackgroundImageFix" result="effect1_dropShadow_535_806"/>
<feBlend mode="normal" in="SourceGraphic" in2="effect1_dropShadow_535_806" result="shape"/>
</filter>
</defs>
</svg>
