<svg width="46" height="37" viewBox="0 0 46 37" fill="none" xmlns="http://www.w3.org/2000/svg">
<path d="M10.3454 7.36049C9.12135 7.36049 8.25735 7.25249 7.75335 7.03649C7.24935 6.79649 6.94935 6.5085 6.85335 6.1725C6.75735 5.8365 6.70935 5.4885 6.70935 5.1285V5.0925C6.70935 4.6845 6.92535 4.2285 7.35735 3.7245C7.81335 3.2205 8.49735 2.8845 9.40935 2.71649C10.7054 2.4045 12.1094 2.1885 13.6214 2.0685C15.1334 1.9245 16.6094 1.8405 18.0494 1.8165C19.5134 1.7685 20.7974 1.7445 21.9014 1.7445C23.0054 1.7685 23.8454 1.9485 24.4214 2.2845C24.9974 2.5965 25.3814 2.9565 25.5734 3.36449C25.7894 3.7485 25.8974 4.0845 25.8974 4.37249C25.8974 4.7565 25.7534 5.1765 25.4654 5.6325C25.1774 6.0645 24.5414 6.2805 23.5574 6.2805C23.1974 6.2805 22.6934 6.3045 22.0454 6.35249C21.3974 6.4005 20.6774 6.4725 19.8854 6.5685C19.8134 7.7445 19.6574 9.2205 19.4174 10.9965C19.1774 12.7725 18.8174 14.6925 18.3374 16.7565C17.8814 18.7965 17.2814 20.8605 16.5374 22.9485C15.8174 25.0125 14.9174 26.9565 13.8374 28.7805C12.7814 30.5805 11.5334 32.1285 10.0934 33.4245C8.67735 34.7205 7.03335 35.6085 5.16135 36.0885C4.77735 36.1845 4.44135 36.2565 4.15335 36.3045C3.88935 36.3765 3.56535 36.4125 3.18135 36.4125C2.48535 36.4125 1.90935 36.2685 1.45335 35.9805C0.997352 35.6925 0.709352 35.2605 0.589352 34.6845C0.469352 33.9885 0.553352 33.3285 0.841352 32.7045C1.10535 32.1045 1.60935 31.6965 2.35335 31.4805C4.10535 30.9045 5.61735 30.0765 6.88935 28.9965C8.18535 27.8925 9.30135 26.4165 10.2374 24.5685C11.1974 22.6965 12.0134 20.3445 12.6854 17.5125C13.3814 14.6565 13.9814 11.1885 14.4854 7.1085C13.6694 7.1805 12.9014 7.2405 12.1814 7.2885C11.4614 7.3365 10.8494 7.36049 10.3454 7.36049ZM27.3039 31.4445C26.3439 31.4445 25.6239 31.1805 25.1439 30.6525C24.6639 30.1245 24.4239 29.5845 24.4239 29.0325C24.4239 28.3845 24.5439 27.8925 24.7839 27.5565C25.0239 27.2205 25.4919 26.9685 26.1879 26.8005C27.0999 26.6085 28.0479 26.3685 29.0319 26.0805C30.0399 25.7925 30.9999 25.4925 31.9119 25.1805C32.8479 24.8445 33.6639 24.5085 34.3599 24.1725C35.0559 23.8125 35.5599 23.4765 35.8719 23.1645C35.4879 22.9485 34.8759 22.6965 34.0359 22.4085C33.1959 22.0965 32.2599 21.7365 31.2279 21.3285C30.2199 20.8965 29.2479 20.3925 28.3119 19.8165C27.3759 19.2405 26.6079 18.5685 26.0079 17.8005C25.4079 17.0325 25.1079 16.1565 25.1079 15.1725C25.1079 13.8045 25.4559 12.5205 26.1519 11.3205C26.8479 10.1205 27.7719 9.0045 28.9239 7.9725C30.0759 6.9405 31.3239 5.9925 32.6679 5.1285C34.0359 4.2645 35.3919 3.4845 36.7359 2.7885C38.1039 2.0685 39.3279 1.43249 40.4079 0.880495C40.8159 0.640495 41.1999 0.484495 41.5599 0.412496C41.9439 0.316496 42.2919 0.268496 42.6039 0.268496C43.6839 0.268496 44.4279 0.532495 44.8359 1.06049C45.2439 1.58849 45.4479 2.12849 45.4479 2.6805C45.4479 3.0645 45.2679 3.5205 44.9079 4.04849C44.5479 4.5525 43.9719 5.0205 43.1799 5.4525C42.4119 5.8845 41.3919 6.1965 40.1199 6.3885C39.9039 6.4125 39.7119 6.4365 39.5439 6.4605C38.5839 6.9405 37.5519 7.51649 36.4479 8.18849C35.3439 8.86049 34.2999 9.5685 33.3159 10.3125C32.3559 11.0325 31.5639 11.7525 30.9399 12.4725C30.3159 13.1925 30.0039 13.8405 30.0039 14.4165C30.0039 15.0645 30.2679 15.6525 30.7959 16.1805C31.3239 16.6845 31.9959 17.1525 32.8119 17.5845C33.6519 17.9925 34.5279 18.3885 35.4399 18.7725C36.3759 19.1565 37.2519 19.5525 38.0679 19.9605C38.9079 20.3445 39.5919 20.7765 40.1199 21.2565C40.6479 21.7365 40.9119 22.2765 40.9119 22.8765C40.9119 23.6925 40.6359 24.4725 40.0839 25.2165C39.5319 25.9605 38.8119 26.6565 37.9239 27.3045C37.0359 27.9285 36.0639 28.4925 35.0079 28.9965C33.9519 29.5005 32.9079 29.9325 31.8759 30.2925C30.8679 30.6765 29.9559 30.9645 29.1399 31.1565C28.3239 31.3485 27.7119 31.4445 27.3039 31.4445Z" fill="#959595"/>
</svg>
