<svg width="45" height="30" viewBox="0 0 45 30" fill="none" xmlns="http://www.w3.org/2000/svg">
<path d="M23.2734 4.5405C23.2734 6.4125 23.1054 8.3925 22.7694 10.4805C22.4574 12.5445 21.9414 14.5725 21.2214 16.5645C20.5254 18.5325 19.6014 20.3205 18.4494 21.9285C17.2974 23.5365 15.9054 24.8205 14.2734 25.7805C12.6654 26.7405 10.7814 27.2205 8.62135 27.2205C6.14935 27.2205 4.15735 26.4285 2.64535 24.8445C1.13335 23.2605 0.377352 20.8365 0.377352 17.5725C0.377352 15.9645 0.557352 14.3925 0.917352 12.8565C1.30135 11.2965 1.70935 9.8925 2.14135 8.6445C2.09335 8.4285 2.06935 8.1765 2.06935 7.8885C2.06935 6.8565 2.22535 5.8845 2.53735 4.9725C2.87335 4.0365 3.29335 3.2205 3.79735 2.52449C4.32535 1.8045 4.87735 1.2405 5.45335 0.832495C6.05335 0.424495 6.61735 0.220495 7.14535 0.220495C7.69735 0.220495 8.17735 0.412495 8.58535 0.796496C9.01735 1.1565 9.23335 1.7925 9.23335 2.70449C9.23335 3.25649 9.02935 4.02449 8.62135 5.0085C8.23735 5.9685 7.79335 7.1205 7.28935 8.4645C6.78535 9.7845 6.32935 11.2725 5.92135 12.9285C5.53735 14.5605 5.34535 16.3125 5.34535 18.1845C5.34535 20.7765 6.64135 22.0725 9.23335 22.0725C10.5774 22.0725 11.7294 21.6885 12.6894 20.9205C13.6734 20.1285 14.4774 19.0725 15.1014 17.7525C15.7494 16.4325 16.2774 14.9445 16.6854 13.2885C17.0934 11.6325 17.4054 9.9285 17.6214 8.1765C17.8374 6.4005 17.9934 4.6965 18.0894 3.0645C18.1614 2.1525 18.4374 1.4925 18.9174 1.0845C19.4214 0.676496 20.0214 0.472496 20.7174 0.472496C21.1734 0.472496 21.5934 0.556496 21.9774 0.724497C22.3614 0.868496 22.6734 1.2285 22.9134 1.8045C23.1534 2.3805 23.2734 3.2925 23.2734 4.5405ZM29.7432 7.8165C28.5912 7.8165 27.7752 7.6965 27.2952 7.4565C26.8152 7.2165 26.5272 6.9285 26.4312 6.5925C26.3352 6.2565 26.2872 5.9685 26.2872 5.7285C26.2872 5.7045 26.2872 5.69249 26.2872 5.69249C26.2872 5.1645 26.5272 4.6605 27.0072 4.1805C27.4872 3.6765 28.1592 3.3285 29.0232 3.1365C29.7432 2.9925 30.5952 2.8485 31.5792 2.70449C32.5872 2.5365 33.6432 2.3925 34.7472 2.2725C35.8752 2.1285 36.9552 2.0205 37.9872 1.9485C39.0192 1.8765 39.9312 1.8405 40.7232 1.8405C41.7792 1.8405 42.5952 1.9965 43.1712 2.3085C43.7472 2.5965 44.1432 2.9325 44.3592 3.3165C44.5992 3.7005 44.7192 4.0245 44.7192 4.2885C44.7192 4.5285 44.6592 4.7685 44.5392 5.0085C44.4192 5.24849 44.1192 5.4885 43.6392 5.7285C43.1832 5.9685 42.4512 6.1965 41.4432 6.4125C40.4352 6.6285 39.0432 6.8325 37.2672 7.02449C37.0992 7.0485 36.9192 7.0725 36.7272 7.0965C36.5592 8.1285 36.3552 9.3645 36.1152 10.8045C35.8752 12.2205 35.6112 13.7085 35.3232 15.2685C35.0592 16.8045 34.7952 18.2805 34.5312 19.6965C34.2912 21.0885 34.0752 22.2765 33.8832 23.2605C34.8672 23.1645 35.7312 23.0925 36.4752 23.0445C37.2432 22.9965 37.7592 22.9725 38.0232 22.9725C38.8632 22.9725 39.4392 23.1525 39.7512 23.5125C40.0632 23.8485 40.2192 24.2925 40.2192 24.8445C40.2192 25.0605 39.8352 25.3965 39.0672 25.8525C38.2992 26.3085 37.2312 26.8005 35.8632 27.3285C34.5192 27.8565 32.9712 28.3245 31.2192 28.7325C30.0672 28.9965 28.9272 29.2005 27.7992 29.3445C26.6712 29.4885 25.8552 29.5605 25.3512 29.5605C24.3672 29.5605 23.7312 29.3805 23.4432 29.0205C23.1792 28.6605 23.0472 28.2045 23.0472 27.6525C23.0472 27.1725 23.1912 26.6805 23.4792 26.1765C23.7912 25.6725 24.2232 25.3125 24.7752 25.0965C25.3512 24.8805 25.9872 24.6765 26.6832 24.4845C27.3792 24.2925 28.0992 24.1245 28.8432 23.9805C28.8912 23.3565 28.9872 22.5285 29.1312 21.4965C29.2752 20.4645 29.4312 19.3365 29.5992 18.1125C29.7912 16.8645 29.9832 15.6045 30.1752 14.3325C30.3912 13.0365 30.5952 11.8245 30.7872 10.6965C31.0032 9.5445 31.1832 8.5485 31.3272 7.7085C30.6312 7.7805 30.1032 7.8165 29.7432 7.8165Z" fill="#959595"/>
</svg>
